#!OML:ASF E:\acrobat2\Project_11_07_03\Capture day 1\Session 1\Acrobat.ASF
:FULLY-SPECIFIED
:DEGREES
33
root 5.97824 17.9354 -23.4838 -3.82229 77.887 -8.07263
lowerback -4.18967 -6.79482 -3.43146
upperback 1.01067 -9.0274 4.14561
thorax 4.59618 -4.63951 5.40744
lowerneck 11.9301 -23.7741 -9.83457
upperneck -2.65262 -32.5197 12.5395
head 0.991166 -16.5941 4.84269
rclavicle 1.29707e-014 3.18055e-015
rhumerus -33.9988 6.45216 -78.2629
rradius 23.0079
rwrist 1.92061
rhand -5.41994 -42.0844
rfingers 7.12502
rthumb 20.3899 -71.0339
lclavicle 1.29707e-014 3.18055e-015
lhumerus -38.2299 4.24089 78.6411
lradius 34.3964
lwrist 12.6797
lhand -10.9571 -12.9408
lfingers 7.12502
lthumb 15.0618 16.4913
rfemur 0.717985 14.2431 9.54535
rtibia -0.940992
rfoot -20.1083 -32.0807
rtoes -3.84634
lfemur 8.51959 -4.2475 -6.15041
ltibia -0.188882
lfoot -29.0348 1.44627
ltoes 47.1393
34
root 5.97983 17.9344 -23.483 -3.80723 77.8879 -8.06375
lowerback -4.18292 -6.81377 -3.46747
upperback 0.976532 -9.05163 4.18299
thorax 4.57183 -4.65225 5.4661
lowerneck 11.8569 -23.9314 -9.60392
upperneck -2.87303 -32.681 12.4689
head 0.905763 -16.6736 4.81
rclavicle 1.38652e-014 0
rhumerus -34.0889 6.4687 -78.1945
rradius 23.0555
rwrist 1.89007
rhand -5.30579 -42.3125
rfingers 7.12502
rthumb 20.4996 -71.2502
lclavicle 1.38652e-014 0
lhumerus -38.2145 4.051 78.797
lradius 34.4821
lwrist 13.2286
lhand -10.6115 -12.9795
lfingers 7.12502
lthumb 15.3948 16.4273
rfemur 0.724159 14.3774 9.55014
rtibia -0.959578
rfoot -20.269 -32.164
rtoes -3.75351
lfemur 8.52097 -4.29765 -6.1524
ltibia -0.187333
lfoot -29.0658 1.34949
ltoes 47.4481
35
root 5.98146 17.9343 -23.4832 -3.85005 77.924 -8.09662
lowerback -4.15139 -6.85218 -3.47062
upperback 0.932591 -9.10308 4.20371
thorax 4.51874 -4.67662 5.49006
lowerneck 12.029 -23.8537 -9.77252
upperneck -2.98226 -32.6009 12.7368
head 0.909802 -16.6467 4.91452
rclavicle 9.05961e-014 -2.46493e-014
rhumerus -34.1384 6.44672 -78.143
rradius 23.0297
rwrist 1.90946
rhand -5.11973 -42.5444
rfingers 7.12502
rthumb 20.6784 -71.4628
lclavicle 9.05961e-014 -2.46493e-014
lhumerus -38.2647 3.88129 78.94
lradius 34.5313
lwrist 13.208
lhand -10.7147 -12.9797
lfingers 7.12502
lthumb 15.2953 16.4347
rfemur 0.766484 14.4441 9.56079
rtibia -0.989698
rfoot -20.4006 -32.203
rtoes -3.63796
lfemur 8.49278 -4.26825 -6.13222
ltibia -0.121348
lfoot -29.0101 1.34608
ltoes 47.4688
36
root 5.98666 17.935 -23.4854 -4.06488 77.9569 -8.30306
lowerback -4.1668 -6.89658 -3.3867
upperback 0.906144 -9.16636 4.22794
thorax 4.49854 -4.70506 5.46212
lowerneck 11.9493 -23.8478 -9.81072
upperneck -2.9556 -32.5967 12.739
head 0.934661 -16.6419 4.90461
rclavicle 3.00165e-014 1.59028e-014
rhumerus -34.1327 6.3483 -78.0486
rradius 23.0123
rwrist 1.96685
rhand -5.00202 -42.8328
rfingers 7.12502
rthumb 20.7915 -71.7389
lclavicle 3.00165e-014 1.59028e-014
lhumerus -38.2932 3.90739 79.0312
lradius 34.5006
lwrist 12.8514
lhand -11.0365 -12.9347
lfingers 7.12502
lthumb 14.9854 16.5031
rfemur 0.818646 14.2763 9.59942
rtibia -1.02369
rfoot -19.9778 -32.2568
rtoes -4.87308
lfemur 8.48844 -4.26041 -6.10197
ltibia -0.0756062
lfoot -28.9766 1.4072
ltoes 47.2382
37
root 5.99262 17.9346 -23.4862 -4.29701 77.9367 -8.56601
lowerback -4.2448 -6.92531 -3.26329
upperback 0.882641 -9.20937 4.23959
thorax 4.50527 -4.72229 5.39416
lowerneck 11.802 -23.8366 -9.83588
upperneck -2.87364 -32.5846 12.6667
head 0.970499 -16.6286 4.86534
rclavicle 8.88567e-014 9.54166e-015
rhumerus -34.1602 6.33746 -78.0181
rradius 23.0358
rwrist 1.86467
rhand -4.95224 -43.1413
rfingers 7.12502
rthumb 20.8393 -72.0421
lclavicle 8.88567e-014 9.54166e-015
lhumerus -38.3259 3.87823 79.1363
lradius 34.4485
lwrist 12.4632
lhand -11.4728 -12.9017
lfingers 7.12502
lthumb 14.565 16.5669
rfemur 0.811809 14.2233 9.64923
rtibia -1.05302
rfoot -19.6783 -32.3254
rtoes -5.55895
lfemur 8.49355 -4.26233 -6.04419
ltibia -0.0959191
lfoot -28.9989 1.68719
ltoes 46.6211
38
root 5.99709 17.9328 -23.4869 -4.28051 77.9324 -8.58427
lowerback -4.31323 -6.94384 -3.1949
upperback 0.849066 -9.23546 4.23071
thorax 4.49913 -4.73203 5.33859
lowerneck 11.7176 -23.8103 -9.90811
upperneck -2.80691 -32.5605 12.669
head 1.0111 -16.6132 4.85514
rclavicle 5.54112e-014 4.29375e-014
rhumerus -34.2683 6.38984 -78.0173
rradius 23.1063
rwrist 1.71327
rhand -4.98313 -43.1808
rfingers 7.12502
rthumb 20.8096 -72.0849
lclavicle 5.54112e-014 4.29375e-014
lhumerus -38.3886 3.65079 79.2889
lradius 34.4599
lwrist 12.3622
lhand -11.6759 -12.8937
lfingers 7.12502
lthumb 14.3693 16.5889
rfemur 0.800907 14.3189 9.63536
rtibia -1.07826
rfoot -20.0453 -32.2231
rtoes -4.17544
lfemur 8.47366 -4.33827 -6.06383
ltibia -0.0957919
lfoot -29.0852 1.81799
ltoes 46.3194
39
root 6.00142 17.9316 -23.489 -4.12347 77.9299 -8.43172
lowerback -4.36408 -6.91829 -3.14357
upperback 0.834283 -9.20121 4.18485
thorax 4.49156 -4.71203 5.26194
lowerneck 11.835 -23.4611 -10.2233
upperneck -2.61148 -32.1537 13.2196
head 1.14827 -16.4267 5.02829
rclavicle -3.49364e-014 -1.51076e-014
rhumerus -34.4174 6.31895 -78.0064
rradius 23.2581
rwrist 1.45054
rhand -5.03328 -43.0274
rfingers 7.12502
rthumb 20.7614 -71.9368
lclavicle -3.49364e-014 -1.51076e-014
lhumerus -38.4115 3.3417 79.424
lradius 34.4983
lwrist 12.4834
lhand -11.4809 -12.9776
lfingers 7.12502
lthumb 14.5572 16.4916
rfemur 0.788908 14.1761 9.56922
rtibia -1.05153
rfoot -20.0832 -32.0052
rtoes -3.61909
lfemur 8.48425 -4.43332 -6.14426
ltibia -0.0944065
lfoot -29.1775 1.73424
ltoes 46.4331
